<svg width="106" height="61" viewBox="0 0 106 61" fill="none" xmlns="http://www.w3.org/2000/svg">
<path fill-rule="evenodd" clip-rule="evenodd" d="M38 7.82605L45.0078 14.4602L32 14.4525V46.6398H66V34.3331L73 40.9598V7.82605H38ZM65.6924 33.5544L45.8226 14.744H65.6924V33.5544ZM59.5231 41.9316H37.3801V20.284H38.9453V40.4657H59.5231V41.9316ZM42.6089 50.9252L41.791 52.6097L40.9731 50.9252H40.2871L41.481 53.1713V54.4799H42.1011V53.1713L43.2925 50.9252H42.6089ZM43.6367 54.4799L43.9248 53.6522H45.3018L45.5923 54.4799H46.2368L44.8916 50.9252H44.3374L42.9946 54.4799H43.6367ZM44.6133 51.6796L45.1284 53.1542H44.0981L44.6133 51.6796ZM47.8701 53.0687C47.7806 53.2054 47.7358 53.356 47.7358 53.5204C47.7358 53.8199 47.8408 54.0632 48.0508 54.2504C48.2624 54.4359 48.5439 54.5287 48.8955 54.5287C49.2471 54.5287 49.5498 54.4335 49.8037 54.243L50.0039 54.4799H50.6924L50.1699 53.8622C50.375 53.5822 50.4775 53.2233 50.4775 52.7855H49.9624C49.9624 53.0248 49.9128 53.2421 49.8135 53.4374L49.1274 52.6268L49.3691 52.451C49.54 52.3274 49.6629 52.2037 49.7378 52.08C49.8127 51.9546 49.8501 51.8179 49.8501 51.6698C49.8501 51.4452 49.7671 51.2572 49.6011 51.1058C49.4367 50.9528 49.2251 50.8763 48.9663 50.8763C48.6798 50.8763 48.452 50.9577 48.2827 51.1205C48.1134 51.2816 48.0288 51.5013 48.0288 51.7797C48.0288 51.8936 48.0557 52.0116 48.1094 52.1337C48.1647 52.2557 48.2616 52.4039 48.3999 52.578C48.1362 52.7668 47.9596 52.9304 47.8701 53.0687ZM49.4741 53.8549C49.3 53.9883 49.1128 54.0551 48.9126 54.0551C48.7352 54.0551 48.5936 54.0038 48.4878 53.9012C48.382 53.7987 48.3291 53.6652 48.3291 53.5009C48.3291 53.3104 48.4268 53.1412 48.6221 52.993L48.6978 52.9393L49.4741 53.8549ZM48.8369 52.2802C48.6693 52.0734 48.5854 51.9017 48.5854 51.765C48.5854 51.6462 48.6196 51.5477 48.688 51.4696C48.7563 51.3915 48.8483 51.3524 48.9639 51.3524C49.0713 51.3524 49.16 51.3858 49.23 51.4525C49.3 51.5176 49.335 51.5966 49.335 51.6893C49.335 51.8293 49.2845 51.944 49.1836 52.0336L49.1079 52.0946L48.8369 52.2802ZM54.623 54.2113C54.8672 53.9981 55.0072 53.7019 55.043 53.3226H54.4277C54.3952 53.5765 54.3179 53.758 54.1958 53.8671C54.0737 53.9761 53.8914 54.0306 53.6489 54.0306C53.3836 54.0306 53.1818 53.9297 53.0435 53.7279C52.9067 53.5261 52.8384 53.2331 52.8384 52.849V52.5341C52.8416 52.1548 52.9149 51.8676 53.0581 51.6722C53.203 51.4753 53.4097 51.3768 53.6782 51.3768C53.9093 51.3768 54.0843 51.4338 54.2031 51.5477C54.3236 51.66 54.3984 51.844 54.4277 52.0995H55.043C55.0039 51.7105 54.8647 51.4094 54.6255 51.1962C54.3862 50.983 54.0705 50.8763 53.6782 50.8763C53.3869 50.8763 53.1297 50.9455 52.9067 51.0839C52.6854 51.2222 52.5153 51.4191 52.3965 51.6747C52.2777 51.9302 52.2183 52.2256 52.2183 52.5609V52.8929C52.2231 53.2201 52.2842 53.5074 52.4014 53.7548C52.5186 54.0022 52.6846 54.1934 52.8994 54.3285C53.1159 54.462 53.3657 54.5287 53.6489 54.5287C54.0542 54.5287 54.3789 54.4229 54.623 54.2113ZM58.2534 53.7133C58.3739 53.4496 58.4341 53.1436 58.4341 52.7953V52.5975C58.4325 52.2509 58.3706 51.9473 58.2485 51.6869C58.1265 51.4248 57.9531 51.2247 57.7285 51.0863C57.5055 50.9463 57.2492 50.8763 56.9595 50.8763C56.6698 50.8763 56.4126 50.9471 56.188 51.0887C55.965 51.2287 55.7917 51.4314 55.668 51.6967C55.5459 51.962 55.4849 52.2679 55.4849 52.6146V52.8148C55.4865 53.155 55.5483 53.4553 55.6704 53.7157C55.7941 53.9761 55.9683 54.1771 56.1929 54.3187C56.4191 54.4587 56.6763 54.5287 56.9644 54.5287C57.2557 54.5287 57.5129 54.4587 57.7358 54.3187C57.9604 54.1771 58.133 53.9753 58.2534 53.7133ZM57.5918 51.704C57.7415 51.9139 57.8164 52.2159 57.8164 52.6097V52.7953C57.8164 53.1957 57.7423 53.5 57.5942 53.7084C57.4478 53.9167 57.2378 54.0209 56.9644 54.0209C56.6942 54.0209 56.4826 53.9143 56.3296 53.701C56.1782 53.4878 56.1025 53.1859 56.1025 52.7953V52.5902C56.1058 52.2077 56.1823 51.9123 56.332 51.704C56.4834 51.494 56.6925 51.389 56.9595 51.389C57.2329 51.389 57.4437 51.494 57.5918 51.704Z" fill="#AFB1B8"/>
</svg>
