<svg width="106" height="61" viewBox="0 0 106 61" fill="none" xmlns="http://www.w3.org/2000/svg">
<path d="M26.7569 45.5613C27.0006 45.8374 27.1304 46.1833 27.1236 46.5382C27.136 46.7698 27.0914 47.0009 26.993 47.2145C26.8947 47.4282 26.7451 47.6188 26.5554 47.7723C26.082 48.0997 25.4956 48.2597 24.9037 48.223H22V42.0315H24.8442C25.4057 41.9973 25.9626 42.1427 26.42 42.4429C26.6036 42.5836 26.7491 42.7616 26.8448 42.9626C26.9406 43.1636 26.984 43.3823 26.9716 43.6013C26.9883 43.9429 26.8712 44.2786 26.6413 44.548C26.4206 44.794 26.1156 44.9646 25.7758 45.032C26.161 45.0963 26.5087 45.2839 26.7569 45.5613V45.5613ZM23.3511 44.6267H24.5667C24.843 44.6454 25.1174 44.5724 25.3397 44.421C25.431 44.3453 25.502 44.2513 25.5473 44.1464C25.5925 44.0415 25.6108 43.9285 25.6007 43.8161C25.6093 43.7041 25.5906 43.5917 25.5461 43.4871C25.5015 43.3825 25.4322 43.2882 25.343 43.2111C25.1141 43.0555 24.8312 42.9813 24.5469 43.0024H23.3511V44.6267ZM25.4587 47.001C25.5562 46.9235 25.6329 46.8264 25.6828 46.7173C25.7326 46.6081 25.7543 46.4899 25.7461 46.3719C25.7535 46.2525 25.7309 46.1331 25.6799 46.0229C25.6289 45.9128 25.551 45.8149 25.4521 45.7367C25.2142 45.5753 24.9217 45.496 24.6262 45.5129H23.3511V47.2158H24.6427C24.9334 47.2311 25.2212 47.1554 25.4587 47.001V47.001Z" fill="#AFB1B8"/>
<path d="M32.5709 48.223L30.9886 45.8033H30.394V48.223H29.033V42.0315H31.6096C32.2591 41.99 32.9012 42.1784 33.4034 42.5578C33.7635 42.8938 33.9808 43.3366 34.0159 43.8064C34.051 44.2761 33.9018 44.7419 33.595 45.1197C33.2771 45.4532 32.8428 45.6755 32.3661 45.7488L34.0508 48.223H32.5709ZM30.394 44.9594H31.5072C32.2802 44.9594 32.6667 44.6468 32.6667 44.0218C32.6746 43.8941 32.6534 43.7663 32.6045 43.6466C32.5556 43.5268 32.48 43.4177 32.3826 43.3261C32.1383 43.1401 31.8237 43.0498 31.5072 43.075H30.3807L30.394 44.9594Z" fill="#AFB1B8"/>
<path d="M40.0102 46.9767H37.2981L36.8191 48.2229H35.392L37.8828 42.101H39.4255L41.9063 48.2229H40.4793L40.0102 46.9767ZM39.6468 46.0391L38.6558 43.4258L37.6648 46.0391H39.6468Z" fill="#AFB1B8"/>
<path d="M49.3224 48.223H47.9713L44.9421 44.0126V48.223H43.5943V42.0315H44.9421L47.9713 46.266V42.0315H49.3224V48.223Z" fill="#AFB1B8"/>
<path d="M57.0326 46.7409C56.7532 47.2084 56.3276 47.5886 55.8103 47.8328C55.2222 48.1048 54.5695 48.2389 53.9109 48.223H51.506V42.0315H53.9109C54.5684 42.0158 55.2202 42.1466 55.8103 42.4126C56.3275 42.6513 56.7536 43.0278 57.0326 43.4924C57.3107 43.996 57.4556 44.5524 57.4556 45.1167C57.4556 45.681 57.3107 46.2374 57.0326 46.7409V46.7409ZM55.4866 46.5927C55.8722 46.1814 56.0842 45.6572 56.0842 45.1152C56.0842 44.5731 55.8722 44.049 55.4866 43.6376C55.0205 43.2651 54.4127 43.076 53.7952 43.1113H52.8571V47.119H53.7952C54.4127 47.1544 55.0205 46.9653 55.4866 46.5927Z" fill="#AFB1B8"/>
<path d="M40.8558 7.59277C40.8558 7.59277 58.2945 13.6209 57.9245 22.344V37.0983C57.9245 37.0983 40.4991 31.0671 40.8624 22.344L40.8558 7.59277Z" fill="#AFB1B8"/>
<path d="M73.4603 33.6441C76.7538 31.5688 80.5633 30.2834 84.5399 29.9056V25.287C79.9579 26.904 76.0709 29.8359 73.4603 33.6441V33.6441Z" fill="#AFB1B8"/>
<path d="M71.4816 35.0356C74.1773 30.0657 78.8505 26.2306 84.54 24.3192V11.0107C84.54 11.0107 59.705 19.5977 60.2303 32.02V53.0262C60.2303 53.0262 61.3369 52.6421 63.0778 51.9222C63.0778 51.2507 63.0778 50.5732 63.1571 49.8927C63.6711 44.1257 66.6654 38.7816 71.4816 35.0356V35.0356Z" fill="#AFB1B8"/>
<path d="M69.1197 42.8391C69.2502 41.3823 69.5413 39.9413 69.9885 38.5381C66.9896 41.7731 65.1734 45.7875 64.7956 50.0166C64.7592 50.4159 64.7394 50.8152 64.7295 51.2265C66.14 50.6065 67.7818 49.8321 69.5062 48.9217C69.0662 46.9209 68.936 44.8732 69.1197 42.8391V42.8391Z" fill="#AFB1B8"/>
<path d="M70.1075 42.9148C69.9421 44.7551 70.0454 46.6074 70.4147 48.4227C77.1999 44.7054 84.8241 38.9615 84.5301 32.02V31.415C79.6824 31.9117 75.1468 33.8521 71.6204 36.9381C70.7948 38.8505 70.2849 40.8648 70.1075 42.9148V42.9148Z" fill="#AFB1B8"/>
</svg>
