<svg width="106" height="61" viewBox="0 0 106 61" fill="none" xmlns="http://www.w3.org/2000/svg">
<g filter="url(#filter0_d_73601_13)">
<path d="M36.4062 49.9275C36.4221 49.9279 36.4378 49.931 36.4523 49.9367C36.4668 49.9424 36.4799 49.9505 36.4907 49.9606L36.7089 50.1691C36.5395 50.3379 36.3303 50.4728 36.0954 50.5648C35.8203 50.6651 35.5239 50.7136 35.2257 50.707C34.9454 50.712 34.667 50.6668 34.4077 50.5743C34.1738 50.4893 33.9637 50.3616 33.7915 50.1999C33.6158 50.0322 33.4805 49.8357 33.3935 49.6218C33.2982 49.3835 33.2511 49.1326 33.2544 48.8803C33.2505 48.6263 33.3014 48.374 33.4044 48.1363C33.4996 47.9211 33.6433 47.7246 33.827 47.5582C34.0132 47.3951 34.2359 47.2669 34.4813 47.1815C34.7499 47.0911 35.0358 47.046 35.3238 47.0489C35.5913 47.0432 35.8574 47.0843 36.1063 47.1697C36.3222 47.2511 36.5205 47.3641 36.6925 47.5037L36.5098 47.7265C36.4972 47.7421 36.4815 47.7558 36.4635 47.7667C36.4419 47.7796 36.4159 47.7854 36.3899 47.7833C36.3616 47.7816 36.3343 47.7734 36.3108 47.7596L36.2126 47.7004L36.0763 47.6246C36.0175 47.5964 35.9564 47.5719 35.8936 47.5511C35.8128 47.526 35.7298 47.5062 35.6455 47.4919C35.5385 47.4748 35.4299 47.4668 35.3211 47.4682C35.1137 47.466 34.9079 47.4998 34.7158 47.5677C34.5367 47.6306 34.3749 47.7259 34.2414 47.8473C34.1054 47.9764 34.0007 48.1278 33.9333 48.2927C33.8565 48.4813 33.8187 48.6802 33.8215 48.8803C33.8182 49.0834 33.8561 49.2855 33.9333 49.4773C33.9998 49.6408 34.1027 49.7913 34.2359 49.9204C34.3608 50.0407 34.5156 50.1347 34.6885 50.1952C34.8665 50.2593 35.0575 50.2915 35.2502 50.29C35.3615 50.2915 35.4727 50.2851 35.5828 50.271C35.7626 50.2519 35.9351 50.1977 36.0872 50.1123C36.1635 50.0685 36.2356 50.0194 36.3026 49.9654C36.3306 49.9422 36.3675 49.9287 36.4062 49.9275V49.9275Z" fill="#AFB1B8"/>
<path d="M42.7043 48.8799C42.7077 49.1312 42.6578 49.381 42.5571 49.6166C42.4682 49.8304 42.3283 50.0254 42.1464 50.1887C41.9645 50.352 41.7449 50.48 41.502 50.5643C40.9682 50.7412 40.3781 50.7412 39.8443 50.5643C39.6029 50.4787 39.3847 50.3505 39.2036 50.1876C39.0218 50.0213 38.8808 49.8246 38.7891 49.6095C38.5927 49.1324 38.5927 48.6108 38.7891 48.1336C38.8822 47.9184 39.023 47.7212 39.2036 47.5532C39.3862 47.3954 39.6043 47.272 39.8443 47.1907C40.3774 47.0106 40.9688 47.0106 41.502 47.1907C41.7442 47.2762 41.9633 47.4045 42.1454 47.5674C42.3249 47.7321 42.4648 47.9262 42.5571 48.1383C42.6581 48.3756 42.708 48.6269 42.7043 48.8799ZM42.1318 48.8799C42.1361 48.6788 42.101 48.4785 42.0282 48.2876C41.9671 48.124 41.8677 47.9732 41.7364 47.8446C41.6086 47.7229 41.4512 47.6274 41.2757 47.565C40.8878 47.4355 40.4584 47.4355 40.0706 47.565C39.895 47.6274 39.7376 47.7229 39.6098 47.8446C39.4767 47.9725 39.3763 48.1235 39.3154 48.2876C39.1766 48.6732 39.1766 49.0865 39.3154 49.4721C39.3769 49.636 39.4772 49.7869 39.6098 49.9151C39.7378 50.0361 39.8952 50.1308 40.0706 50.1923C40.4591 50.3186 40.8871 50.3186 41.2757 50.1923C41.451 50.1308 41.6084 50.0361 41.7364 49.9151C41.8672 49.7861 41.9664 49.6354 42.0282 49.4721C42.1013 49.2813 42.1364 49.081 42.1318 48.8799V48.8799Z" fill="#AFB1B8"/>
<path d="M47.0013 49.5008L47.0585 49.6334C47.0803 49.586 47.0994 49.5434 47.1212 49.5008C47.142 49.4562 47.1657 49.4127 47.1921 49.3705L48.5853 47.1699C48.6126 47.132 48.6371 47.1083 48.6644 47.1012C48.7015 47.0914 48.7402 47.0874 48.7789 47.0894H49.1906V50.6686H48.7026V48.0369C48.7026 48.0037 48.7026 47.9658 48.7026 47.9255C48.6999 47.8845 48.6999 47.8434 48.7026 47.8024L47.3012 50.0337C47.2834 50.0671 47.2549 50.0954 47.2191 50.1152C47.1833 50.1349 47.1418 50.1453 47.0994 50.1451H47.0203C46.9779 50.1456 46.9362 50.1353 46.9003 50.1155C46.8645 50.0958 46.8361 50.0673 46.8186 50.0337L45.3763 47.7881C45.3763 47.8308 45.3763 47.8734 45.3763 47.9161C45.3763 47.9587 45.3763 47.9966 45.3763 48.0298V50.6615H44.9046V47.0894H45.3163C45.355 47.0874 45.3937 47.0914 45.4308 47.1012C45.4646 47.1158 45.4916 47.14 45.5072 47.1699L46.9304 49.3728C46.9583 49.4136 46.9821 49.4564 47.0013 49.5008V49.5008Z" fill="#AFB1B8"/>
<path d="M52.2443 49.3229V50.6636H51.699V47.0892H52.915C53.1445 47.0854 53.3734 47.1118 53.5939 47.1674C53.7704 47.2109 53.934 47.2868 54.0737 47.3901C54.1948 47.4868 54.2882 47.6069 54.3464 47.7406C54.4107 47.8864 54.4422 48.0416 54.4391 48.1978C54.4415 48.3545 54.4072 48.5101 54.3382 48.6549C54.2726 48.7921 54.1719 48.9144 54.0437 49.0126C53.9038 49.1202 53.7394 49.2009 53.5612 49.2495C53.3489 49.3084 53.1269 49.3364 52.9041 49.3324L52.2443 49.3229ZM52.2443 48.9392H52.9041C53.0474 48.9408 53.1901 48.9224 53.3267 48.8847C53.4394 48.8518 53.5432 48.7994 53.632 48.7307C53.714 48.6652 53.7774 48.5841 53.8174 48.4939C53.8621 48.3984 53.8843 48.2961 53.8829 48.193C53.8892 48.0937 53.8706 47.9943 53.8282 47.9019C53.7858 47.8094 53.7207 47.7261 53.6375 47.6577C53.4292 47.5164 53.1676 47.448 52.9041 47.4659H52.2443V48.9392Z" fill="#AFB1B8"/>
<path d="M59.573 50.6684H59.1422C59.099 50.6699 59.0566 50.6581 59.0223 50.6353C58.9913 50.613 58.967 50.5845 58.9514 50.5524L58.5806 49.6877H56.7184L56.334 50.5524C56.3198 50.584 56.2963 50.6118 56.2658 50.6329C56.2312 50.6572 56.1876 50.6698 56.1431 50.6684H55.7123L57.3482 47.0889H57.9153L59.573 50.6684ZM56.8738 49.3394H58.4115L57.7626 47.8825C57.713 47.7729 57.6721 47.6605 57.64 47.5461L57.5772 47.7332C57.5582 47.7901 57.5363 47.8422 57.5173 47.8849L56.8738 49.3394Z" fill="#AFB1B8"/>
<path d="M61.9287 47.1055C61.9613 47.1211 61.9893 47.143 62.0105 47.1695L64.3962 49.8678C64.3962 49.8251 64.3962 49.7825 64.3962 49.7422C64.3962 49.7019 64.3962 49.6617 64.3962 49.6237V47.0889H64.8842V50.6685H64.6116C64.5728 50.6695 64.5344 50.6622 64.4998 50.6471C64.4661 50.6301 64.4365 50.6076 64.4125 50.5808L62.0296 47.8849C62.0322 47.9259 62.0322 47.9671 62.0296 48.0081C62.0296 48.0484 62.0296 48.0839 62.0296 48.1171V50.6685H61.5416V47.0889H61.8306C61.8643 47.0881 61.8978 47.0938 61.9287 47.1055V47.1055Z" fill="#AFB1B8"/>
<path d="M68.903 49.2449V50.6662H68.3577V49.2449L66.85 47.0891H67.338C67.3801 47.0869 67.4216 47.0979 67.4553 47.1199C67.4849 47.1429 67.5098 47.1701 67.5289 47.2004L68.4722 48.591C68.5104 48.6503 68.5431 48.7047 68.5704 48.7569C68.5977 48.809 68.6195 48.8587 68.6386 48.9085L68.7094 48.7545C68.7359 48.6982 68.7669 48.6436 68.8021 48.591L69.7319 47.191C69.7514 47.163 69.7753 47.1375 69.8028 47.1152C69.8351 47.0906 69.8771 47.0779 69.92 47.0796H70.4135L68.903 49.2449Z" fill="#AFB1B8"/>
<path d="M46.7313 41.0822C46.9685 41.1083 47.2085 41.1296 47.4511 41.1485C51.13 39.7187 54.2421 37.3784 56.3986 34.4202C58.5551 31.4621 59.6602 28.0173 59.5758 24.5165L55.5215 20.9939C56.3458 24.7212 55.9602 28.5743 54.4078 32.122C52.8554 35.6697 50.1975 38.7722 46.7313 41.0822V41.0822Z" fill="#AFB1B8"/>
<path d="M45.2836 40.9183L45.3927 40.9373C49.0966 38.6354 51.9205 35.4211 53.4992 31.7099C55.0779 27.9987 55.3388 23.9614 54.2483 20.12L48.4736 15.1028C50.8093 19.2268 51.7495 23.8422 51.1847 28.4122C50.62 32.9822 48.5737 37.319 45.2836 40.9183V40.9183Z" fill="#AFB1B8"/>
<path d="M64.8679 28.6526C63.8868 32.4992 61.504 35.9683 58.0735 38.5449C57.0716 39.3016 55.9909 39.9756 54.8453 40.5584C57.6388 39.8451 60.2064 38.5838 62.3502 36.872C64.4939 35.1602 66.1566 33.0435 67.2099 30.6851L64.8679 28.6526Z" fill="#AFB1B8"/>
<path d="M63.949 28.0861L60.6146 25.189C60.5508 28.4921 59.47 31.72 57.4845 34.5374C55.499 37.3548 52.6813 39.6587 49.3242 41.2098H49.3406C50.0887 41.2095 50.8362 41.1707 51.579 41.0937C54.7164 39.9811 57.488 38.211 59.6464 35.9413C61.8049 33.6716 63.283 30.9729 63.949 28.0861V28.0861Z" fill="#AFB1B8"/>
<path d="M45.7662 12.987L41.7883 9.526C38.2322 10.72 35.1737 12.8189 33.0133 15.5481C30.8529 18.2773 29.6911 21.5096 29.68 24.822V24.822C29.6933 28.482 31.1112 32.0337 33.7092 34.9149C36.3072 37.796 39.937 39.842 44.024 40.7291C47.6724 36.867 49.8085 32.0948 50.1218 27.1058C50.4351 22.1168 48.9094 17.171 45.7662 12.987V12.987Z" fill="#AFB1B8"/>
<path d="M73.14 27.5534C73.1256 23.2109 71.1338 19.0498 67.5996 15.9792C64.0655 12.9086 59.2763 11.178 54.2783 11.1655C51.9687 11.1635 49.6788 11.5337 47.5248 12.2576L71.8804 33.4187C72.7143 31.5481 73.1414 29.5593 73.14 27.5534Z" fill="#AFB1B8"/>
</g>
<defs>
<filter id="filter0_d_73601_13" x="25.68" y="9.526" width="51.46" height="49.1815" filterUnits="userSpaceOnUse" color-interpolation-filters="sRGB">
<feFlood flood-opacity="0" result="BackgroundImageFix"/>
<feColorMatrix in="SourceAlpha" type="matrix" values="0 0 0 0 0 0 0 0 0 0 0 0 0 0 0 0 0 0 127 0" result="hardAlpha"/>
<feOffset dy="4"/>
<feGaussianBlur stdDeviation="2"/>
<feComposite in2="hardAlpha" operator="out"/>
<feColorMatrix type="matrix" values="0 0 0 0 0 0 0 0 0 0 0 0 0 0 0 0 0 0 0.25 0"/>
<feBlend mode="normal" in2="BackgroundImageFix" result="effect1_dropShadow_73601_13"/>
<feBlend mode="normal" in="SourceGraphic" in2="effect1_dropShadow_73601_13" result="shape"/>
</filter>
</defs>
</svg>
