<svg width="106" height="61" viewBox="0 0 106 61" fill="none" xmlns="http://www.w3.org/2000/svg">
<path fill-rule="evenodd" clip-rule="evenodd" d="M50.1136 6.76057H49.977C49.7671 6.74786 49.5571 6.74277 49.3471 6.73768H49.3471H49.3269H48.8918C48.4946 6.73768 48.0898 6.74786 47.6876 6.7682C47.6573 6.76599 47.6269 6.76599 47.5966 6.7682C43.9522 6.97468 40.3817 7.88556 37.0805 9.45097L36.6479 9.65949V31.8006L37.6598 31.4573C38.5477 31.1522 39.4938 30.8775 40.4728 30.6233C43.1193 29.9438 45.8367 29.5828 48.568 29.5476V32.4567C48.2062 32.4592 47.8546 32.4694 47.503 32.4872H47.4195C45.3175 32.6025 43.2317 32.9227 41.1913 33.4433C38.6072 34.0903 36.1143 35.0617 33.7716 36.3346V7.93794C36.2047 6.5188 38.8253 5.45292 41.5556 4.77201C43.9527 4.1531 46.4169 3.83536 48.8918 3.82605H49.3193C49.8303 3.83876 50.3287 3.86165 50.7967 3.89725C52.0297 3.98383 53.2528 4.17868 54.4521 4.47958V7.3429C53.2874 7.07156 52.1032 6.893 50.9105 6.80889C50.8863 6.80684 50.8621 6.80477 50.8379 6.80271C50.5911 6.78166 50.344 6.76057 50.1136 6.76057ZM55.1528 9.68743C55.7877 9.73575 56.4455 9.75864 57.1108 9.75864C59.7125 9.74912 62.3031 9.41688 64.8239 8.76944C67.4068 8.12001 69.8986 7.14783 72.2411 5.87561V33.7663C69.8067 35.1845 67.1853 36.2504 64.4546 36.9322C62.0571 37.5487 59.5931 37.8656 57.1184 37.8756C55.2433 37.8907 53.3737 37.6703 51.553 37.2195V9.14834C51.983 9.24751 52.4257 9.33906 52.876 9.41534C53.6147 9.53995 54.3939 9.63149 55.1528 9.68743ZM69.3471 9.90358L68.3352 10.2443C67.4042 10.5571 66.4657 10.8368 65.5221 11.086C62.7749 11.792 59.9514 12.1541 57.1158 12.1642C56.4556 12.1642 55.8485 12.1464 55.2616 12.1083L54.4546 12.0549V32.1439V34.8317L55.1477 34.8928C55.7903 34.9487 56.4531 34.9767 57.1209 34.9767C59.3544 34.9672 61.5781 34.6794 63.7412 34.1197C65.5223 33.673 67.2552 33.0503 68.9145 32.2609L69.3471 32.0523V9.90358Z" fill="#AFB1B8"/>
<path d="M35.7371 46.0384C35.5917 45.8876 35.4163 45.7691 35.2224 45.6907C35.0284 45.6123 34.8203 45.5757 34.6114 45.5833C34.3888 45.5803 34.1678 45.6218 33.9613 45.7053C33.7719 45.7807 33.5998 45.8941 33.4553 46.0384C33.3125 46.1832 33.2013 46.3565 33.129 46.547C33.0497 46.7467 33.0101 46.9601 33.0126 47.1751V50.9691C33.0036 51.2365 33.0546 51.5025 33.1619 51.7473C33.2514 51.9417 33.3807 52.115 33.5413 52.2559C33.693 52.3835 33.871 52.4756 34.0625 52.5254C34.2469 52.5773 34.4376 52.6038 34.6291 52.6042C34.8404 52.6064 35.0495 52.5612 35.2413 52.472C35.4309 52.389 35.6028 52.2698 35.7473 52.1211C35.8881 51.9737 36.0005 51.8012 36.0786 51.6125C36.1597 51.4212 36.201 51.2152 36.2001 51.0073V50.5826H35.2084V50.9208C35.2114 51.0363 35.1916 51.1512 35.1502 51.259C35.1179 51.3398 35.0688 51.4126 35.006 51.4726C34.9446 51.5223 34.8742 51.5594 34.7986 51.582C34.7316 51.6043 34.6617 51.6163 34.5912 51.6176C34.5026 51.6279 34.413 51.6145 34.3312 51.5788C34.2495 51.5431 34.1786 51.4863 34.1257 51.4141C34.0322 51.2617 33.9864 51.0845 33.9942 50.9056V47.3684C33.988 47.1722 34.0297 46.9775 34.1156 46.8013C34.1671 46.7212 34.2399 46.6573 34.3258 46.6168C34.4117 46.5764 34.5071 46.561 34.6013 46.5724C34.6868 46.5694 34.7717 46.5872 34.8488 46.6245C34.9259 46.6617 34.9929 46.7171 35.044 46.7861C35.155 46.9317 35.213 47.1112 35.2084 47.2946V47.6227H36.19V47.2361C36.1919 47.0092 36.1507 46.7839 36.0685 46.5724C35.9953 46.3737 35.8825 46.192 35.7371 46.0384V46.0384Z" fill="#AFB1B8"/>
<path d="M41.6289 45.9952C41.3127 45.7282 40.9136 45.5806 40.5007 45.5781C40.2987 45.579 40.0984 45.6151 39.9087 45.6849C39.7161 45.754 39.5384 45.8592 39.3851 45.9952C39.2208 46.1428 39.0897 46.324 39.0005 46.5266C38.9006 46.7584 38.8515 47.009 38.8563 47.2615V50.9004C38.8495 51.1564 38.8987 51.4108 39.0005 51.6455C39.0903 51.8412 39.2215 52.0148 39.3851 52.1541C39.5367 52.2949 39.7147 52.4038 39.9087 52.4745C40.0984 52.5443 40.2987 52.5804 40.5007 52.5813C40.7027 52.5809 40.9031 52.5448 41.0926 52.4745C41.29 52.4028 41.4719 52.2941 41.6289 52.1541C41.7871 52.0122 41.9145 51.8391 42.0033 51.6455C42.1051 51.4108 42.1544 51.1564 42.1475 50.9004V47.2615C42.1524 47.009 42.1032 46.7584 42.0033 46.5266C41.9151 46.3261 41.7878 46.1454 41.6289 45.9952V45.9952ZM41.166 50.9004C41.1743 50.9974 41.1609 51.0951 41.1268 51.1862C41.0926 51.2773 41.0386 51.3595 40.9687 51.4268C40.8377 51.5367 40.6725 51.5968 40.5019 51.5968C40.3313 51.5968 40.1662 51.5367 40.0352 51.4268C39.9652 51.3595 39.9112 51.2773 39.8771 51.1862C39.8429 51.0951 39.8295 50.9974 39.8379 50.9004V47.2615C39.8295 47.1645 39.8429 47.0669 39.8771 46.9758C39.9112 46.8847 39.9652 46.8025 40.0352 46.7352C40.1662 46.6253 40.3313 46.5651 40.5019 46.5651C40.6725 46.5651 40.8377 46.6253 40.9687 46.7352C41.0386 46.8025 41.0926 46.8847 41.1268 46.9758C41.1609 47.0669 41.1743 47.1645 41.166 47.2615V50.9004Z" fill="#AFB1B8"/>
<path d="M49.3673 52.5255V45.6367H48.4136L47.1614 49.2833H47.1437L45.8813 45.6367H44.9377V52.5255H45.9218V48.3347H45.9395L46.9033 51.2972H47.3941L48.3655 48.3347H48.3832V52.5255H49.3673Z" fill="#AFB1B8"/>
<path d="M54.9581 46.1197C54.8065 45.9497 54.6153 45.8204 54.4015 45.7434C54.1712 45.6684 53.9302 45.6323 53.6881 45.6366H52.226V52.5253H53.2075V49.8349H53.7134C54.0197 49.8488 54.3244 49.7841 54.5988 49.6467C54.822 49.5228 55.0081 49.3411 55.1377 49.1204C55.2512 48.9371 55.3277 48.7332 55.3628 48.5202C55.4014 48.261 55.4192 47.9991 55.4159 47.737C55.4255 47.4062 55.3932 47.0755 55.3198 46.7529C55.2543 46.5145 55.1299 46.2967 54.9581 46.1197V46.1197ZM54.4521 48.2202C54.4479 48.3449 54.4168 48.4672 54.361 48.5787C54.3049 48.6846 54.2162 48.7694 54.1081 48.8203C53.9627 48.8853 53.8041 48.9149 53.6451 48.9068H53.1974V46.5647H53.7033C53.8557 46.5573 54.0075 46.5869 54.146 46.6512C54.2475 46.7094 54.3281 46.7984 54.3762 46.9055C54.4299 47.0265 54.4591 47.157 54.4622 47.2895C54.4622 47.4344 54.4622 47.587 54.4622 47.7472C54.4622 47.9074 54.4723 48.0727 54.4622 48.2202H54.4521Z" fill="#AFB1B8"/>
<path d="M59.6077 45.6367H58.8032L57.2854 52.5255H58.2669L58.5553 51.0455H59.8935L60.1819 52.5255H61.1635L59.6077 45.6367ZM58.702 50.1072L59.1852 47.61H59.2029L59.6836 50.1072H58.702Z" fill="#AFB1B8"/>
<path d="M65.9497 49.7868H65.932L64.4496 45.6367H63.506V52.5255H64.4875V48.3831H64.5078L66.0079 52.5255H66.9312V45.6367H65.9497V49.7868Z" fill="#AFB1B8"/>
<path d="M71.9476 45.6367L71.1583 48.3754H71.1381L70.3488 45.6367H69.3091L70.6574 49.6138V52.5255H71.639V49.6138L72.9873 45.6367H71.9476Z" fill="#AFB1B8"/>
<path d="M33 54.4706H33.4731V55.798H33.7943V54.4706H34.2649V54.1985H33V54.4706Z" fill="#AFB1B8"/>
<path d="M36.9767 54.1985L36.3569 55.798H36.6984L36.83 55.4343H37.4675L37.6041 55.798H37.9532L37.3182 54.1985H36.9767ZM36.9261 55.1648L37.1437 54.5723L37.3612 55.1648H36.9261Z" fill="#AFB1B8"/>
<path d="M40.9079 55.2082H41.2773V55.4142C41.1694 55.5006 41.0358 55.5481 40.8978 55.5489C40.8333 55.5525 40.7689 55.5406 40.7099 55.514C40.6509 55.4875 40.5991 55.4471 40.5588 55.3964C40.474 55.2746 40.4322 55.1278 40.4399 54.9793C40.4399 54.6233 40.5942 54.4453 40.9003 54.4453C40.9809 54.4373 41.0617 54.4585 41.128 54.5052C41.1944 54.5518 41.2419 54.6208 41.2621 54.6996L41.5783 54.6386C41.51 54.3258 41.2849 54.1681 40.9003 54.1681C40.6947 54.1626 40.4947 54.2363 40.3413 54.3741C40.2607 54.4537 40.1983 54.55 40.1586 54.6563C40.1188 54.7625 40.1026 54.8763 40.1111 54.9895C40.1017 55.2083 40.1749 55.4227 40.316 55.5896C40.3943 55.6704 40.4892 55.7331 40.594 55.7735C40.6988 55.8139 40.8111 55.831 40.9231 55.8236C41.1734 55.8305 41.4165 55.7393 41.6011 55.5693V54.9386H40.9079V55.2082Z" fill="#AFB1B8"/>
<path d="M44.9226 54.1985H44.5988V55.798H45.7194V55.5259H44.9226V54.1985Z" fill="#AFB1B8"/>
<path d="M48.3175 54.1985H47.9937V55.798H48.3175V54.1985Z" fill="#AFB1B8"/>
<path d="M51.6365 55.2665L50.9813 54.1985H50.6676V55.798H50.9686V54.7528L51.6112 55.798H51.9325V54.1985H51.6365V55.2665Z" fill="#AFB1B8"/>
<path d="M54.6368 55.0936H55.4337V54.8215H54.6368V54.4706H55.4944V54.1985H54.313V55.798H55.5273V55.5259H54.6368V55.0936Z" fill="#AFB1B8"/>
<path d="M61.9122 54.8291H61.2823V54.1985H60.9611V55.798H61.2823V55.0987H61.9122V55.798H62.2335V54.1985H61.9122V54.8291Z" fill="#AFB1B8"/>
<path d="M64.9302 55.0936H65.7296V54.8215H64.9302V54.4706H65.7903V54.1985H64.6089V55.798H65.8206V55.5259H64.9302V55.0936Z" fill="#AFB1B8"/>
<path d="M69.0233 55.0937C69.3015 55.0504 69.4432 54.9029 69.4432 54.6486C69.4513 54.5806 69.441 54.5117 69.4134 54.449C69.3858 54.3864 69.3419 54.3324 69.2863 54.2926C69.1415 54.2199 68.9799 54.1874 68.8183 54.1986H68.1404V55.798H68.4617V55.1293H68.5249C68.5934 55.125 68.6619 55.1372 68.7247 55.1649C68.7717 55.1938 68.8108 55.234 68.8386 55.2818L69.1877 55.7904H69.5722L69.3774 55.4776C69.2913 55.3232 69.1699 55.1916 69.0233 55.0937V55.0937ZM68.6994 54.8724H68.4617V54.4706H68.7146C68.8248 54.4617 68.9357 54.4747 69.041 54.5088C69.0644 54.5294 69.0828 54.5551 69.095 54.5839C69.1072 54.6127 69.1127 54.6439 69.1113 54.6752C69.1098 54.7065 69.1014 54.737 69.0866 54.7645C69.0718 54.7921 69.051 54.8159 69.0258 54.8343C68.9202 54.8667 68.8096 54.8796 68.6994 54.8724V54.8724Z" fill="#AFB1B8"/>
<path d="M72.1096 55.0936H72.9064V54.8215H72.1096V54.4706H72.9697V54.1985H71.7858V55.798H73V55.5259H72.1096V55.0936Z" fill="#AFB1B8"/>
</svg>
