<svg width="106" height="61" viewBox="0 0 106 61" fill="none" xmlns="http://www.w3.org/2000/svg">
<path d="M24.1462 21.9288H24.1433C21.7453 21.9288 19.8013 23.6564 19.8013 25.7875V25.79C19.8013 27.9211 21.7453 29.6487 24.1433 29.6487H24.1462C26.5442 29.6487 28.4882 27.9211 28.4882 25.79V25.7875C28.4882 23.6564 26.5442 21.9288 24.1462 21.9288Z" fill="#2196F3"/>
<path d="M56.195 20.6953C56.1882 17.7353 54.8623 14.8983 52.5074 12.805C50.1525 10.7117 46.9604 9.53272 43.6297 9.526V9.526C40.298 9.53138 37.1045 10.7098 34.7484 12.8032C32.3922 14.8966 31.0655 17.7345 31.0587 20.6953V20.6953V37.0182C31.0587 37.0182 56.1922 34.5305 56.195 20.6979V20.6953Z" fill="#2196F3"/>
<path d="M11 42.3755C11.006 44.4351 11.9291 46.4089 13.5676 47.8654C15.2061 49.322 17.4267 50.1431 19.7442 50.1491V50.1491C22.0612 50.1431 24.2814 49.3224 25.9197 47.8664C27.5581 46.4103 28.4816 44.4372 28.4884 42.3781V42.3781V31.0204C28.4884 31.0204 11 32.7527 11 42.3755ZM19.7442 44.4105C19.2913 44.4105 18.8486 44.2911 18.472 44.0675C18.0955 43.8439 17.802 43.5261 17.6287 43.1543C17.4554 42.7824 17.41 42.3733 17.4984 41.9785C17.5867 41.5838 17.8048 41.2212 18.125 40.9366C18.4453 40.652 18.8533 40.4582 19.2975 40.3797C19.7416 40.3011 20.202 40.3414 20.6205 40.4955C21.0389 40.6495 21.3965 40.9103 21.6481 41.245C21.8997 41.5796 22.034 41.973 22.034 42.3755C22.0351 42.6434 21.9767 42.9088 21.8622 43.1566C21.7476 43.4044 21.5791 43.6296 21.3664 43.8194C21.1536 44.0092 20.9008 44.1597 20.6224 44.2625C20.3441 44.3652 20.0456 44.4181 19.7442 44.4181V44.4105Z" fill="#2196F3"/>
<path d="M37.4177 43.2898H35.7302V45.033H34.8513V40.7673H37.6286V41.4792H35.7302V42.5808H37.4177V43.2898ZM41.6423 42.9968C41.6423 43.4167 41.5681 43.7849 41.4196 44.1013C41.2712 44.4177 41.0583 44.6619 40.7809 44.8337C40.5056 45.0056 40.1891 45.0916 39.8317 45.0916C39.4782 45.0916 39.1628 45.0066 38.8854 44.8367C38.6081 44.6667 38.3932 44.4246 38.2409 44.1101C38.0886 43.7937 38.0114 43.4304 38.0095 43.0203V42.8093C38.0095 42.3894 38.0847 42.0203 38.235 41.7019C38.3874 41.3816 38.6013 41.1365 38.8766 40.9666C39.154 40.7947 39.4704 40.7087 39.8259 40.7087C40.1813 40.7087 40.4968 40.7947 40.7722 40.9666C41.0495 41.1365 41.2634 41.3816 41.4138 41.7019C41.5661 42.0203 41.6423 42.3884 41.6423 42.8064V42.9968ZM40.7516 42.8035C40.7516 42.3562 40.6716 42.0164 40.5114 41.7839C40.3513 41.5515 40.1227 41.4353 39.8259 41.4353C39.5309 41.4353 39.3034 41.5505 39.1432 41.781C38.9831 42.0095 38.902 42.3455 38.9001 42.7888V42.9968C38.9001 43.4324 38.9802 43.7703 39.1403 44.0105C39.3005 44.2507 39.5309 44.3708 39.8317 44.3708C40.1266 44.3708 40.3532 44.2556 40.5114 44.0251C40.6696 43.7927 40.7497 43.4548 40.7516 43.0115V42.8035ZM44.4929 43.9138C44.4929 43.7478 44.4343 43.6208 44.3171 43.533C44.1999 43.4431 43.989 43.3494 43.6843 43.2517C43.3796 43.1521 43.1384 43.0544 42.9606 42.9587C42.4763 42.697 42.2341 42.3445 42.2341 41.9011C42.2341 41.6707 42.2985 41.4656 42.4274 41.2859C42.5583 41.1042 42.7448 40.9626 42.987 40.8611C43.2311 40.7595 43.5046 40.7087 43.8073 40.7087C44.112 40.7087 44.3835 40.7644 44.6218 40.8757C44.86 40.9851 45.0446 41.1404 45.1755 41.3416C45.3083 41.5427 45.3747 41.7712 45.3747 42.0271H44.4958C44.4958 41.8318 44.4343 41.6804 44.3112 41.573C44.1882 41.4636 44.0153 41.4089 43.7927 41.4089C43.5778 41.4089 43.4108 41.4548 43.2917 41.5466C43.1725 41.6365 43.113 41.7556 43.113 41.9041C43.113 42.0427 43.1823 42.1589 43.321 42.2527C43.4616 42.3464 43.6677 42.4343 43.9391 42.5164C44.4391 42.6667 44.8034 42.8533 45.0319 43.0759C45.2604 43.2986 45.3747 43.5759 45.3747 43.908C45.3747 44.2771 45.235 44.5671 44.9557 44.7781C44.6765 44.9871 44.3005 45.0916 43.8278 45.0916C43.4997 45.0916 43.2009 45.032 42.9313 44.9128C42.6618 44.7917 42.4557 44.6267 42.3132 44.4177C42.1725 44.2087 42.1022 43.9666 42.1022 43.6912H42.9841C42.9841 44.1619 43.2653 44.3972 43.8278 44.3972C44.0368 44.3972 44.1999 44.3552 44.3171 44.2712C44.4343 44.1853 44.4929 44.0662 44.4929 43.9138ZM49.1833 41.4792H47.8766V45.033H46.9977V41.4792H45.7087V40.7673H49.1833V41.4792ZM52.2536 43.1843H50.5661V44.3269H52.5466V45.033H49.6872V40.7673H52.5407V41.4792H50.5661V42.4958H52.2536V43.1843ZM54.6413 43.4714H53.9411V45.033H53.0622V40.7673H54.6472C55.1511 40.7673 55.5397 40.8796 55.8132 41.1042C56.0866 41.3289 56.2233 41.6462 56.2233 42.0564C56.2233 42.3474 56.1599 42.5906 56.0329 42.7859C55.9079 42.9792 55.7175 43.1335 55.4616 43.2488L56.3845 44.9919V45.033H55.4411L54.6413 43.4714ZM53.9411 42.7595H54.6501C54.8708 42.7595 55.0417 42.7039 55.1628 42.5925C55.2839 42.4792 55.3444 42.324 55.3444 42.1267C55.3444 41.9255 55.2868 41.7673 55.1716 41.6521C55.0583 41.5369 54.8835 41.4792 54.6472 41.4792H53.9411V42.7595ZM59.2673 43.53V45.033H58.3884V40.7673H60.0524C60.3727 40.7673 60.654 40.8259 60.8962 40.9431C61.1403 41.0603 61.3278 41.2273 61.4587 41.4441C61.5895 41.6589 61.655 41.9041 61.655 42.1794C61.655 42.5974 61.5114 42.9275 61.2243 43.1697C60.9391 43.4099 60.5436 43.53 60.0378 43.53H59.2673ZM59.2673 42.8181H60.0524C60.2849 42.8181 60.4616 42.7634 60.5827 42.6541C60.7057 42.5447 60.7673 42.3884 60.7673 42.1853C60.7673 41.9763 60.7057 41.8074 60.5827 41.6785C60.4597 41.5496 60.2897 41.4832 60.0729 41.4792H59.2673V42.8181ZM64.8278 43.1843H63.1403V44.3269H65.1208V45.033H62.2614V40.7673H65.1149V41.4792H63.1403V42.4958H64.8278V43.1843ZM68.9059 41.4792H67.5993V45.033H66.7204V41.4792H65.4313V40.7673H68.9059V41.4792ZM71.9763 43.1843H70.2888V44.3269H72.2692V45.033H69.4099V40.7673H72.2634V41.4792H70.2888V42.4958H71.9763V43.1843ZM74.364 43.4714H73.6638V45.033H72.7849V40.7673H74.3698C74.8737 40.7673 75.2624 40.8796 75.5358 41.1042C75.8093 41.3289 75.946 41.6462 75.946 42.0564C75.946 42.3474 75.8825 42.5906 75.7556 42.7859C75.6306 42.9792 75.4401 43.1335 75.1843 43.2488L76.1071 44.9919V45.033H75.1638L74.364 43.4714ZM73.6638 42.7595H74.3727C74.5934 42.7595 74.7643 42.7039 74.8854 42.5925C75.0065 42.4792 75.0671 42.324 75.0671 42.1267C75.0671 41.9255 75.0095 41.7673 74.8942 41.6521C74.7809 41.5369 74.6061 41.4792 74.3698 41.4792H73.6638V42.7595ZM78.8288 43.9138C78.8288 43.7478 78.7702 43.6208 78.653 43.533C78.5358 43.4431 78.3249 43.3494 78.0202 43.2517C77.7155 43.1521 77.4743 43.0544 77.2966 42.9587C76.8122 42.697 76.57 42.3445 76.57 41.9011C76.57 41.6707 76.6345 41.4656 76.7634 41.2859C76.8942 41.1042 77.0807 40.9626 77.3229 40.8611C77.5671 40.7595 77.8405 40.7087 78.1432 40.7087C78.4479 40.7087 78.7194 40.7644 78.9577 40.8757C79.196 40.9851 79.3806 41.1404 79.5114 41.3416C79.6442 41.5427 79.7106 41.7712 79.7106 42.0271H78.8317C78.8317 41.8318 78.7702 41.6804 78.6472 41.573C78.5241 41.4636 78.3513 41.4089 78.1286 41.4089C77.9138 41.4089 77.7468 41.4548 77.6276 41.5466C77.5085 41.6365 77.4489 41.7556 77.4489 41.9041C77.4489 42.0427 77.5182 42.1589 77.6569 42.2527C77.7975 42.3464 78.0036 42.4343 78.2751 42.5164C78.7751 42.6667 79.1393 42.8533 79.3679 43.0759C79.5964 43.2986 79.7106 43.5759 79.7106 43.908C79.7106 44.2771 79.571 44.5671 79.2917 44.7781C79.0124 44.9871 78.6364 45.0916 78.1638 45.0916C77.8356 45.0916 77.5368 45.032 77.2673 44.9128C76.9977 44.7917 76.7917 44.6267 76.6491 44.4177C76.5085 44.2087 76.4382 43.9666 76.4382 43.6912H77.32C77.32 44.1619 77.6013 44.3972 78.1638 44.3972C78.3727 44.3972 78.5358 44.3552 78.653 44.2712C78.7702 44.1853 78.8288 44.0662 78.8288 43.9138Z" fill="#2196F3"/>
</svg>
