<svg width="106" height="61" viewBox="0 0 106 61" fill="none" xmlns="http://www.w3.org/2000/svg">
<path d="M53.425 28.2343C52.9819 27.6444 52.7699 26.9474 52.8203 26.2457V23.3625C52.8203 22.4787 53.0207 21.807 53.4216 21.3475C53.8224 20.888 54.511 20.6592 55.4871 20.6611C56.4044 20.6611 57.0555 20.8567 57.4405 21.2478C57.8605 21.7467 58.0648 22.3569 58.018 22.9724V23.6499H56.3772V22.9636C56.383 22.7389 56.3671 22.5143 56.3296 22.2919C56.306 22.1399 56.2234 21.9992 56.0952 21.893C55.9267 21.7785 55.7145 21.723 55.5007 21.7376C55.2759 21.7231 55.0529 21.7817 54.8756 21.9018C54.7327 22.0195 54.6374 22.1738 54.6038 22.3418C54.5567 22.5771 54.5351 22.8157 54.5393 23.0545V26.5536C54.5134 26.8912 54.5858 27.229 54.7499 27.5362C54.8315 27.6402 54.9448 27.7226 55.0774 27.7743C55.2099 27.8261 55.3564 27.8452 55.5007 27.8295C55.7109 27.8445 55.9195 27.7876 56.0816 27.6711C56.2153 27.5566 56.3013 27.407 56.3262 27.2458C56.3645 27.0137 56.3816 26.7793 56.3772 26.5448V25.835H58.018V26.4833C58.0641 27.1248 57.8648 27.7617 57.4507 28.2959C57.0736 28.7241 56.4315 28.9382 55.4871 28.9382C54.5427 28.9382 53.8292 28.7094 53.425 28.2343Z" fill="#AFB1B8"/>
<path d="M60.2569 28.2636C59.8424 27.8149 59.6352 27.1608 59.6352 26.2955V23.2628C59.6352 22.4063 59.8424 21.7581 60.2569 21.3181C60.6713 20.8782 61.3644 20.6592 62.3359 20.6611C63.3007 20.6611 63.9904 20.8801 64.4048 21.3181C64.8193 21.7581 65.0299 22.4063 65.0299 23.2628V26.2955C65.0299 27.152 64.8193 27.809 64.398 28.2607C63.9768 28.7124 63.2906 28.9382 62.3359 28.9382C61.3813 28.9382 60.6747 28.7094 60.2569 28.2636ZM63.1003 27.5362C63.2487 27.2551 63.3163 26.9472 63.2974 26.6387V22.9255C63.3164 22.6229 63.2499 22.321 63.1037 22.0455C63.0205 21.9394 62.9043 21.8556 62.7686 21.8038C62.6328 21.7519 62.4829 21.734 62.3359 21.7522C62.1885 21.7345 62.0383 21.7526 61.9021 21.8044C61.7659 21.8562 61.6491 21.9397 61.5648 22.0455C61.4154 22.3201 61.3477 22.6226 61.3678 22.9255V26.6563C61.3471 26.9649 61.4148 27.2731 61.5648 27.5538C61.6604 27.6484 61.7785 27.7243 61.9109 27.7762C62.0433 27.8282 62.1871 27.8551 62.3326 27.8551C62.478 27.8551 62.6218 27.8282 62.7542 27.7762C62.8866 27.7243 63.0047 27.6484 63.1003 27.5538V27.5362Z" fill="#AFB1B8"/>
<path d="M67.0035 20.7496H68.7701L70.0984 26.3453L71.4573 20.7496H73.1763L73.3496 28.8264H72.079L71.9431 23.2131L70.6318 28.8264H69.6126L68.2537 23.1926L68.128 28.8264H66.8439L67.0035 20.7496Z" fill="#AFB1B8"/>
<path d="M75.3302 20.7496H78.0819C79.6673 20.7496 80.4599 21.5141 80.4599 23.043C80.4599 24.5074 79.6254 25.2387 77.9562 25.2367H77.0186V28.8264H75.32L75.3302 20.7496ZM77.6811 24.2014C77.8489 24.2198 78.0193 24.2065 78.1806 24.1625C78.3419 24.1184 78.4902 24.0447 78.6153 23.9463C78.8101 23.6735 78.896 23.3532 78.8599 23.0342C78.8688 22.7878 78.8414 22.5415 78.7783 22.301C78.7541 22.2207 78.7116 22.1454 78.6533 22.0794C78.5949 22.0135 78.522 21.9582 78.4386 21.9169C78.2028 21.8192 77.9422 21.7748 77.6811 21.7878H77.022V24.2014H77.6811Z" fill="#AFB1B8"/>
<path d="M82.9094 20.7496H84.7337L86.6055 28.8264H85.0225L84.6522 26.9641H83.0249L82.6444 28.8264H81.0376L82.9094 20.7496ZM84.4687 26.0285L83.8334 22.6383L83.1982 26.0285H84.4687Z" fill="#AFB1B8"/>
<path d="M88.1173 20.7496H89.3063L91.5825 25.3569V20.7496H92.9923V28.8264H91.861L89.5713 24.0167V28.8264H88.1139L88.1173 20.7496Z" fill="#AFB1B8"/>
<path d="M96.2945 25.7469L94.4022 20.761H95.9955L97.1506 23.9637L98.2343 20.761H99.7936L97.9251 25.7469V28.8264H96.2945V25.7469Z" fill="#AFB1B8"/>
<path d="M56.0477 32.3577V32.78H54.6617V36.062H54.0807V32.78H52.6879V32.3577H56.0477Z" fill="#AFB1B8"/>
<path d="M60.3927 36.0622H59.9442C59.8987 36.0647 59.8538 36.0521 59.8185 36.0271C59.7846 36.0055 59.7587 35.976 59.7438 35.942L59.3429 35.0622H57.4201L57.0192 35.942C57.0078 35.9788 56.9869 36.0129 56.958 36.0417C56.9225 36.0663 56.8778 36.0788 56.8324 36.0769H56.3839L58.0825 32.3728H58.6737L60.3927 36.0622ZM57.5797 34.6868H59.1833L58.5038 33.1793C58.4537 33.0653 58.4117 32.9488 58.3781 32.8303C58.3543 32.9007 58.3339 32.9682 58.3136 33.0268L58.2524 33.1823L57.5797 34.6868Z" fill="#AFB1B8"/>
<path d="M63.3211 35.6984C63.4275 35.7032 63.5341 35.7032 63.6404 35.6984C63.7323 35.6902 63.8232 35.6755 63.9122 35.6544C63.9954 35.6368 64.0772 35.6143 64.1568 35.5869C64.2316 35.5605 64.3063 35.5283 64.3844 35.496V34.663H63.705C63.6882 34.6638 63.6714 34.6616 63.6556 34.6566C63.6398 34.6515 63.6254 34.6437 63.6133 34.6337C63.6021 34.6253 63.5933 34.6149 63.5874 34.6033C63.5815 34.5916 63.5787 34.5789 63.5793 34.5662V34.2817H64.8974V35.7013C64.7898 35.7678 64.6762 35.8266 64.5577 35.8773C64.4366 35.9289 64.3104 35.9711 64.1806 36.0035C64.0417 36.0387 63.8996 36.0643 63.7559 36.0797C63.5912 36.0955 63.4257 36.1033 63.26 36.1032C62.967 36.1053 62.6763 36.0585 62.4038 35.9653C62.1495 35.877 61.9184 35.7453 61.7244 35.5781C61.5353 35.4092 61.3864 35.2099 61.2862 34.9915C61.1791 34.746 61.1261 34.4853 61.1299 34.223C61.1263 33.959 61.1781 33.6967 61.2828 33.4486C61.3805 33.2291 61.5297 33.0294 61.721 32.862C61.9149 32.6954 62.1461 32.5646 62.4005 32.4778C62.6914 32.3833 63.0001 32.3365 63.3109 32.3399C63.4691 32.3397 63.627 32.3505 63.7831 32.3722C63.9212 32.3916 64.0567 32.423 64.1874 32.466C64.3062 32.5046 64.4201 32.5537 64.5271 32.6127C64.6312 32.6706 64.7301 32.7353 64.8227 32.8063L64.6596 33.0351C64.6468 33.056 64.6278 33.0735 64.6045 33.0859C64.5812 33.0983 64.5545 33.105 64.5271 33.1055C64.4895 33.1044 64.453 33.0942 64.4218 33.0761C64.3708 33.0527 64.3165 33.0233 64.2553 32.9881C64.1831 32.949 64.1069 32.9156 64.0277 32.8884C63.9265 32.8533 63.8219 32.8259 63.7152 32.8063C63.5729 32.7836 63.4284 32.7728 63.2837 32.774C63.0596 32.7719 62.8371 32.8067 62.6281 32.8767C62.439 32.9421 62.2686 33.0422 62.1287 33.17C61.9879 33.3032 61.8803 33.4599 61.8127 33.6305C61.661 34.0317 61.661 34.4642 61.8127 34.8654C61.8871 35.0396 62.0028 35.1984 62.1525 35.3318C62.2918 35.4588 62.4609 35.5588 62.6485 35.6251C62.8645 35.6891 63.0934 35.7141 63.3211 35.6984V35.6984Z" fill="#AFB1B8"/>
<path d="M68.7362 35.6396H70.5911V36.062H68.1689V32.3577H68.7498L68.7362 35.6396Z" fill="#AFB1B8"/>
<path d="M72.5208 36.062H71.9398V32.3577H72.5208V36.062Z" fill="#AFB1B8"/>
<path d="M74.6814 32.3753C74.7159 32.3923 74.746 32.4153 74.7697 32.4427L77.253 35.2351C77.2497 35.1911 77.2497 35.147 77.253 35.1031C77.253 35.062 77.253 35.0209 77.253 34.9828V32.343H77.7592V36.0622H77.4671C77.4238 36.0653 77.3804 36.0582 77.3414 36.0417C77.3061 36.0232 77.275 35.9994 77.2496 35.9713L74.7697 33.1819C74.7697 33.2259 74.7697 33.2669 74.7697 33.308C74.7697 33.3491 74.7697 33.3872 74.7697 33.4224V36.0622H74.2839V32.3577H74.5863C74.6191 32.3577 74.6515 32.3637 74.6814 32.3753V32.3753Z" fill="#AFB1B8"/>
<path d="M82.0364 32.3577V32.7654H79.9777V33.9884H81.6457V34.3814H79.9777V35.6455H82.0364V36.0532H79.3798V32.3577H82.0364Z" fill="#AFB1B8"/>
<path d="M21.1617 9.48156L46.9568 15.8049V37.9629L21.1617 31.6425V9.48156ZM19.5073 7.59277V32.7188L48.6079 39.8546V14.7314L19.5073 7.59277Z" fill="#AFB1B8"/>
<path d="M35.1039 51.5183L6 44.3766V19.2532L35.1039 26.3919V51.5183Z" fill="#AFB1B8"/>
<path d="M19.9897 9.19704L45.4484 15.4411L34.6215 24.7909L9.15941 18.544L19.9897 9.19704ZM19.5073 7.59277L6 19.2537L35.1039 26.3923L48.6078 14.7313L19.5073 7.59277Z" fill="#AFB1B8"/>
<path d="M36.7414 50.1048L48.6078 39.8576L36.7414 36.9453V50.1048Z" fill="#AFB1B8"/>
</svg>
